<svg xmlns="http://www.w3.org/2000/svg"  viewBox="0 0 16 16" width="32px" height="32px"><path d="M 7.5 1 C 5.578125 1 4 2.578125 4 4.5 C 4 6.421875 5.578125 8 7.5 8 C 9.421875 8 11 6.421875 11 4.5 C 11 2.578125 9.421875 1 7.5 1 Z M 7.5 3 C 8.339844 3 9 3.660156 9 4.5 C 9 5.339844 8.339844 6 7.5 6 C 6.660156 6 6 5.339844 6 4.5 C 6 3.660156 6.660156 3 7.5 3 Z M 4.976563 8.378906 C 4.515625 8.382813 4.117188 8.703125 4.011719 9.15625 C 3.910156 9.605469 4.128906 10.066406 4.539063 10.273438 C 4.878906 10.449219 5.242188 10.585938 5.617188 10.703125 L 4.234375 12.359375 C 3.992188 12.632813 3.921875 13.015625 4.042969 13.355469 C 4.164063 13.699219 4.460938 13.945313 4.820313 14.007813 C 5.179688 14.066406 5.542969 13.925781 5.765625 13.640625 L 7.5 11.5625 L 9.234375 13.640625 C 9.457031 13.925781 9.820313 14.066406 10.179688 14.007813 C 10.539063 13.945313 10.835938 13.699219 10.957031 13.355469 C 11.078125 13.015625 11.007813 12.632813 10.765625 12.359375 L 9.382813 10.703125 C 9.757813 10.585938 10.121094 10.449219 10.457031 10.273438 C 10.949219 10.019531 11.140625 9.417969 10.886719 8.925781 C 10.636719 8.433594 10.03125 8.242188 9.539063 8.496094 C 8.917969 8.816406 8.234375 9 7.5 9 C 6.765625 9 6.082031 8.816406 5.460938 8.496094 C 5.3125 8.417969 5.144531 8.375 4.976563 8.378906 Z"/></svg>